<?xml version="1.0" standalone="no"?>
<!DOCTYPE svg PUBLIC "-//W3C//DTD SVG 20010904//EN"
 "http://www.w3.org/TR/2001/REC-SVG-20010904/DTD/svg10.dtd">
<svg version="1.0" xmlns="http://www.w3.org/2000/svg"
 width="579.000000pt" height="579.000000pt" viewBox="0 0 579.000000 579.000000"
 preserveAspectRatio="xMidYMid meet">
<metadata>
Created by potrace 1.14, written by Peter Selinger 2001-2017
</metadata>
<g transform="translate(0.000000,579.000000) scale(0.100000,-0.100000)"
fill="#000000" stroke="none">
<path d="M1508 5725 c-2 -1 -25 -5 -53 -8 -148 -16 -302 -76 -437 -171 -62
-44 -128 -106 -540 -510 -299 -294 -337 -342 -407 -505 -52 -122 -64 -202 -58
-389 5 -181 11 -212 77 -357 60 -135 112 -193 654 -722 l170 -166 -356 -351
c-393 -388 -436 -440 -497 -608 -43 -117 -52 -173 -50 -336 1 -133 5 -169 25
-240 40 -137 119 -277 213 -377 79 -84 688 -675 731 -709 73 -59 100 -76 185
-115 320 -151 687 -118 974 86 36 26 154 134 261 239 185 182 393 385 458 447
l30 29 219 -215 c444 -437 483 -473 562 -524 287 -185 636 -206 946 -58 148
71 167 88 699 613 231 228 287 291 339 384 150 268 158 584 21 860 -61 124
-123 194 -470 535 l-345 338 354 350 c365 360 409 412 473 550 62 133 78 213
79 375 0 169 -17 259 -75 386 -74 162 -88 177 -670 748 -91 89 -190 182 -220
207 -170 141 -371 211 -605 212 -202 0 -360 -47 -530 -158 -86 -56 -99 -68
-504 -465 -149 -146 -273 -265 -275 -265 -2 0 -153 146 -335 324 -345 338
-403 389 -510 448 -61 35 -197 87 -251 96 -14 3 -41 8 -60 11 -37 7 -216 16
-222 11z m192 -385 c91 -17 200 -75 286 -155 6 -5 130 -127 276 -270 630 -618
1087 -1067 1145 -1123 l62 -60 -237 -232 c-375 -368 -1029 -1011 -1196 -1175
-84 -82 -161 -163 -171 -179 -22 -37 -23 -122 -1 -165 15 -28 247 -262 605
-609 77 -75 141 -140 141 -144 0 -7 -320 -326 -558 -556 -59 -57 -131 -119
-161 -139 -128 -85 -308 -114 -456 -74 -97 27 -181 71 -239 125 -210 196 -693
680 -721 722 -58 88 -87 176 -91 279 -4 98 5 151 38 235 36 90 74 137 239 300
241 237 880 864 1107 1086 l203 199 67 6 c215 17 357 203 318 414 -18 96 -101
196 -199 241 -53 24 -74 28 -147 28 -97 0 -163 -25 -237 -89 -81 -69 -129
-215 -105 -320 l8 -40 -100 -99 c-56 -54 -166 -163 -246 -242 l-146 -144 -146
143 c-329 319 -530 521 -557 560 -131 191 -132 442 -3 629 53 76 701 711 779
764 58 38 156 79 217 88 22 4 41 8 42 9 5 5 133 -4 184 -13z m2590 5 c57 -7
145 -40 206 -76 52 -31 220 -191 639 -605 124 -123 157 -162 189 -224 52 -98
66 -163 63 -285 -3 -83 -8 -112 -32 -170 -39 -98 -74 -145 -196 -265 -140
-139 -845 -831 -1111 -1091 l-211 -206 -61 14 c-165 39 -325 -36 -398 -185
-29 -59 -33 -76 -33 -147 1 -64 6 -91 27 -136 36 -79 89 -133 165 -171 220
-108 472 27 507 271 4 30 44 73 273 297 155 151 273 259 279 255 27 -15 666
-649 689 -684 49 -72 67 -111 86 -185 34 -135 23 -252 -38 -382 -33 -71 -52
-92 -317 -355 -440 -436 -472 -466 -553 -508 -167 -87 -358 -89 -530 -5 -75
37 -110 69 -487 439 -138 136 -297 291 -352 345 -441 429 -784 768 -784 774 0
6 121 128 380 380 69 67 310 303 535 525 226 221 467 458 536 526 70 68 133
135 142 149 22 37 29 94 17 142 -10 38 -54 85 -388 414 l-376 371 91 89 c50
49 203 199 341 334 146 144 272 258 304 278 71 42 159 73 228 79 30 3 56 7 58
8 3 2 53 -2 112 -10z"/>
</g>
</svg>
